<?xml version="1.0" encoding="UTF-8"?> <!-- Creator: CorelDRAW X7 --> <svg xmlns="http://www.w3.org/2000/svg" xmlns:xlink="http://www.w3.org/1999/xlink" xml:space="preserve" width="1335px" height="1471px" style="shape-rendering:geometricPrecision; text-rendering:geometricPrecision; image-rendering:optimizeQuality; fill-rule:evenodd; clip-rule:evenodd" viewBox="0 0 31740476 34990900"> <defs> <style type="text/css"> <![CDATA[ .fil0 {fill:#222222} ]]> </style> </defs> <g id="Слой_x0020_1"> <metadata id="CorelCorpID_0Corel-Layer"></metadata> <path class="fil0" d="M12115507 5400660c702868,-223072 8626533,-101465 9555844,101802 5674942,1241207 5710084,9580676 -116606,10837389 -853774,184166 -8872808,295856 -9501207,97476l61969 -11036667zm-39355 16328418c6166845,-506904 12407317,1594846 17128453,-3681399 3634374,-4061668 3328630,-11304066 -701379,-15019315 -2242150,-2067029 -4490704,-2715036 -7482690,-2915606 -3732946,-250236 -8984302,-309 -13057965,-37642 -908439,-8315 -1509589,-83431 -1580042,995577 -102701,1573188 -1095,3535999 -1489,5152840 -842,3345766 133433,6970533 -23905,10272449l-5891440 64216c-656967,592751 -426424,1694597 -426648,2546236 -871,3305877 -623511,2562585 6341741,2583710l618 2965833c-1453379,0 -2907039,2388 -4360390,-84 -2286084,-3877 -1981379,195317 -1981969,2378476 -590,2180574 -295407,2382858 1981941,2378897 1453295,-2500 2906730,-112 4360024,-112 0,6309885 -446115,5548335 2874285,5549486 2451147,871 2809590,279928 2798719,-1386325 -9017,-1379752 -2528,-2762088 -2528,-4142149 2335103,-195318 5483107,-21434 7906529,-21434 6040604,28 5450072,393445 5450830,-2378363 478,-1722295 361955,-2392044 -1584536,-2380555 -2760740,16293 -9842401,149557 -11773357,-20675l25198 -2904061z"></path> </g> </svg> 